# AST/ASF file generated using VICON BodyLanguage
# -----------------------------------------------
:version 1.10
:name VICON
:units
  mass 1.0
  length 0.45
  angle deg
:documentation
   .ast/.asf automatically generated from VICON data using
   VICON BodyBuilder and BodyLanguage model FoxedUp or BRILLIANT.MOD
:root
   order TX TY TZ RX RY RZ
   axis XYZ
   position 0 0 0  
   orientation 0 0 0 
:bonedata
  begin
     id 1 
     name lhipjoint
     direction 0.623415 -0.642378 0.445763 
     length 2.49859 
     axis 0 0 0  XYZ
  end
  begin
     id 2 
     name lfemur
     direction 0.34202 -0.939693 0  
     length 6.69689  
     axis 0 0 20  XYZ
    dof rx ry rz
    limits (-160.0 20.0)
           (-70.0 70.0)
           (-60.0 70.0)
  end
  begin
     id 3 
     name ltibia
     direction 0.34202 -0.939693 0   
     length 7.37574   
     axis 0 0 20   XYZ
    dof rx
    limits (-10.0 170.0)
  end
  begin
     id 4 
     name lfoot
     direction 0.084323 -0.231675 0.969132   
     length 2.09111   
     axis -90 7.62852e-016 20   XYZ
    dof rx rz
    limits (-45.0 90.0)
           (-70.0 20.0)
  end
  begin
     id 5 
     name ltoes
     direction 1.5357e-011 -4.21957e-011 1   
     length 1.04989   
     axis -90 7.62852e-016 20   XYZ
    dof rx
    limits (-90.0 20.0)
  end
  begin
     id 6 
     name rhipjoint
     direction -0.605402 -0.653903 0.45376   
     length 2.45455  
     axis 0 0 0  XYZ 
  end
  begin
     id 7 
     name rfemur
     direction -0.34202 -0.939693 0   
     length 6.64523   
     axis 0 0 -20   XYZ
    dof rx ry rz
    limits (-160.0 20.0)
           (-70.0 70.0)
           (-70.0 60.0)
  end
  begin
     id 8 
     name rtibia
     direction -0.34202 -0.939693 0   
     length 7.3339   
     axis 0 0 -20   XYZ
    dof rx
    limits (-10.0 170.0)
 end
 begin
     id 9 
     name rfoot
     direction -0.120854 -0.332043 0.93549   
     length 2.23135  
     axis -90 -7.62852e-016 -20   XYZ
    dof rx rz
    limits (-45.0 90.0)
           (-20.0 70.0)
  end
  begin
     id 10 
     name rtoes
     direction -1.53563e-011 -4.21914e-011 1   
     length 1.10614   
     axis -90 -7.62852e-016 -20   XYZ
    dof rx
    limits (-90.0 20.0)
  end
  begin
     id 11 
     name lowerback
     direction 0.0319682 0.998615 -0.0417941   
     length 2.02718   
     axis 0 0 0   XYZ
    dof rx ry rz
    limits (-20.0 45.0)
           (-30.0 30.0)
           (-30.0 30.0)
  end
  begin
     id 12 
     name upperback
     direction 7.63181e-005 0.995808 0.0914691   
     length 1.97539   
     axis 0 0 0   XYZ
    dof rx ry rz
    limits (-20.0 45.0)
           (-30.0 30.0)
           (-30.0 30.0)
  end
  begin
     id 13 
     name thorax
     direction -0.016423 0.993627 0.111514   
     length 2.00349   
     axis 0 0 0   XYZ
    dof rx ry rz
    limits (-20.0 45.0)
           (-30.0 30.0)
           (-30.0 30.0)
  end
  begin
     id 14 
     name lowerneck
     direction -0.174763 0.981668 -0.0760716   
     length 1.71436   
     axis 0 0 0   XYZ
    dof rx ry rz
    limits (-20.0 45.0)
           (-30.0 30.0)
           (-30.0 30.0)
  end
  begin
     id 15 
     name upperneck
     direction 0.345458 0.934587 -0.0848868   
     length 1.72805   
     axis 0 0 0   XYZ
    dof rx ry rz
    limits (-20.0 45.0)
           (-30.0 30.0)
           (-30.0 30.0)
  end
  begin
     id 16
     name head
     direction 0.13001 0.989848 -0.0574291  
     length 1.767  
     axis 0 0 0   XYZ
    dof rx ry rz
    limits (-20.0 45.0)
           (-30.0 30.0)
           (-30.0 30.0)
  end
  begin
     id 17 
     name lclavicle
     direction 0.952951 0.290122 0.0878234  
     length 3.54654  
     axis 0 0 0   XYZ
    dof ry rz
    limits (-20.0 10.0)
           (0.0 20.0)
  end
  begin
     id 18 
     name lhumerus
     direction 1 -4.48957e-011 -4.56525e-028   
     length 5.19807   
     axis 180 -30 -90   XYZ
    dof rx ry rz
    limits (-60.0 90.0)
           (-90.0 90.0)
           (-90.0 90.0)
  end
  begin
     id 19
     name lradius
     direction 1 -4.48979e-011 -2.0317e-027   
     length 3.0937   
     axis 180 -30 -90   XYZ
    dof rx
    limits (-10.0 170.0)
  end
  begin
     id 20
     name lwrist
     direction 1 -4.48953e-011 -3.05809e-027   
     length 1.54685   
     axis 8.48514e-016 90 90   XYZ
    dof ry
    limits (-180.0 0.0)
 end
  begin
     id 21 
     name lhand
     direction 1 -4.48952e-011 -6.11639e-027   
     length 0.672632   
     axis 3.9013e-015 90 90   XYZ
    dof rx rz
    limits (-90.0 90.0)
           (-45.0 45.0)
  end
  begin
     id 22 
     name lfingers
     direction 1 -4.48925e-011 -1.22426e-026   
     length 0.542293   
     axis 7.80276e-015 90 90   XYZ
    dof rx
    limits (0.0 90.0)
  end
  begin
     id 23
     name lthumb
     direction 0.707107 -6.3486e-011 0.707107   
     length 0.778628   
     axis -90 45 5.37419e-014   XYZ
    dof rx rz
    limits (-45.0 45.0)
           (-45.0 45.0)
  end
  begin
     id 24 
     name rclavicle
     direction -0.960732 0.273675 -0.0457849   
     length 3.52079  
     axis 0 0 0   XYZ 
    dof ry rz
    limits (-10.0 20.0)
           (-20.0 0.0)
  end
  begin
     id 25 
     name rhumerus
     direction -1 -4.48976e-011 -1.63613e-027  
     length 5.45222   
     axis 180 30 90   XYZ
    dof rx ry rz
    limits (-90.0 60.0)
           (-90.0 90.0)
           (-90.0 90.0)
  end
  begin
     id 26 
     name rradius
     direction -1 -4.48957e-011 -7.00033e-028   
     length 3.01284   
     axis 180 30 90   XYZ
    dof rx
    limits (-10.0 170.0)
  end
  begin
     id 27 
     name rwrist
     direction -1 -4.48983e-011 -3.05543e-027   
     length 1.50642   
     axis 8.48514e-016 -90 -90   XYZ
    dof ry
    limits (-180.0 0.0)
  end
  begin
     id 28
     name rhand
     direction -1 -4.48984e-011 -6.11072e-027   
     length 0.622296   
     axis 3.9013e-015 -90 -90   XYZ
    dof rx rz
    limits (-90.0 90.0)
           (-45.0 45.0)
  end
  begin
     id 29
     name rfingers
     direction -1 -4.48865e-011 -1.22637e-026   
     length 0.501711   
     axis 7.80276e-015 -90 -90   XYZ
    dof rx
    limits (0.0 90.0)
  end
  begin
     id 30
     name rthumb
     direction -0.707107 -6.34932e-011 0.707107   
     length 0.72036   
     axis -90 -45 -5.37419e-014   XYZ
    dof rx rz
    limits (-45.0 45.0)
           (-45.0 45.0)
  end
:hierarchy
  begin
    root lhipjoint rhipjoint lowerback
    lhipjoint lfemur
    lfemur ltibia
    ltibia lfoot
    lfoot ltoes
    rhipjoint rfemur
    rfemur rtibia
    rtibia rfoot
    rfoot rtoes
    lowerback upperback
    upperback thorax
    thorax lowerneck lclavicle rclavicle
    lowerneck upperneck
    upperneck head
    lclavicle lhumerus
    lhumerus lradius
    lradius lwrist
    lwrist lhand lthumb
    lhand lfingers
    rclavicle rhumerus
    rhumerus rradius
    rradius rwrist
    rwrist rhand rthumb
    rhand rfingers
  end

#!OML:ASF H:\Not Pregnant\Project 1\Capture day 1\Session 1\non-pregnant.ASF
:FULLY-SPECIFIED
:DEGREES
519
root 3.13434 1.22305 17.4151 -102.575 -15.354 8.91105
lowerback 18.0948 0.727248 14.0975
upperback 1.73445 3.77845 -1.03644
thorax -7.27775 1.42927 -10.078
lowerneck 21.8539 -6.49412 -32.3572
upperneck -6.5256 -18.4866 46.2484
head 3.25445 -12.1577 27.5099
rclavicle -4.55217e-014 2.68887e-014
rhumerus -45.608 -24.3741 -51.7674
rradius 46.8585
rwrist 21.2099
rhand -17.0848 -9.51191
rfingers 7.12502
rthumb 9.15347 -39.2933
lclavicle -4.55217e-014 2.68887e-014
lhumerus -52.7632 -6.80575 73.8805
lradius 41.5751
lwrist 33.6539
lhand -4.34259 -5.39107
lfingers 7.12502
lthumb 21.4249 23.4443
rfemur -21.9198 -8.56386 31.4747
rtibia 71.7698
rfoot 21.0544 15.9645
rtoes -13.8065
lfemur -2.60817 1.29333 1.57191
ltibia 47.508
lfoot 38.8437 -13.9435
ltoes -12.1262
520
root 3.13131 1.22584 17.4274 -102.676 -15.1732 8.94658
lowerback 18.0976 0.682387 13.6767
upperback 1.84217 3.63493 -0.898453
thorax -7.23324 1.38275 -9.6454
lowerneck 21.2193 -6.60799 -32.5893
upperneck -6.55673 -18.5135 46.2464
head 3.43487 -12.1089 27.4529
rclavicle -2.80286e-014 -1.05853e-014
rhumerus -45.1965 -24.5317 -51.4261
rradius 46.221
rwrist 21.7395
rhand -17.3589 -9.3354
rfingers 7.12502
rthumb 8.88901 -39.1282
lclavicle -2.80286e-014 -1.05853e-014
lhumerus -52.7092 -6.26138 73.9705
lradius 41.4203
lwrist 32.1722
lhand -4.01034 -5.85764
lfingers 7.12502
lthumb 21.744 22.9411
rfemur -21.242 -8.35997 31.3513
rtibia 70.4884
rfoot 20.3552 15.6818
rtoes -12.5385
lfemur -2.44408 1.16654 1.35088
ltibia 47.5077
lfoot 38.8614 -13.593
ltoes -11.8827
521
root 3.12788 1.22956 17.4404 -102.878 -14.9595 8.97558
lowerback 18.1644 0.584969 13.0704
upperback 2.02785 3.39543 -0.657106
thorax -7.17623 1.2998 -8.97203
lowerneck 20.3917 -6.7127 -32.9786
upperneck -6.53279 -18.5022 46.1949
head 3.66572 -12.0184 27.384
rclavicle 6.06293e-014 4.75763e-014
rhumerus -44.4635 -24.4904 -51.1684
rradius 45.5218
rwrist 22.2719
rhand -17.6619 -9.18253
rfingers 7.12502
rthumb 8.59664 -38.9875
lclavicle 6.06293e-014 4.75763e-014
lhumerus -52.6611 -5.35836 74.0777
lradius 41.3054
lwrist 30.9752
lhand -3.67565 -6.20811
lfingers 7.12502
lthumb 22.0654 22.553
rfemur -20.4482 -8.19746 31.1722
rtibia 69.2441
rfoot 19.7399 15.5126
rtoes -11.9283
lfemur -2.14942 1.02264 1.09932
ltibia 47.4679
lfoot 38.8759 -13.2417
ltoes -11.6543
522
root 3.1244 1.233 17.4534 -103.089 -14.7381 8.98892
lowerback 18.2242 0.45691 12.3525
upperback 2.24628 3.09361 -0.347873
thorax -7.09714 1.19132 -8.14617
lowerneck 19.4589 -6.81611 -33.4459
upperneck -6.4931 -18.4542 46.107
head 3.90855 -11.8951 27.3002
rclavicle 8.34896e-015 1.71793e-014
rhumerus -43.5144 -24.3057 -50.9779
rradius 44.7688
rwrist 22.7887
rhand -17.9653 -9.09162
rfingers 7.12502
rthumb 8.30385 -38.9084
lclavicle 8.34896e-015 1.71793e-014
lhumerus -52.6305 -4.22346 74.1914
lradius 41.2608
lwrist 30.2351
lhand -3.34236 -6.39735
lfingers 7.12502
lthumb 22.3854 22.3256
rfemur -19.6526 -8.0653 30.9805
rtibia 68.0404
rfoot 19.3596 15.3646
rtoes -11.9344
lfemur -1.84893 0.878 0.839571
ltibia 47.4214
lfoot 38.8707 -12.8961
ltoes -11.4396
523
root 3.12087 1.23601 17.4654 -103.281 -14.5107 8.98172
lowerback 18.2733 0.325425 11.6191
upperback 2.44747 2.78366 -0.0382564
thorax -7.0239 1.07538 -7.31246
lowerneck 18.5822 -6.90389 -33.8889
upperneck -6.46602 -18.3715 46.0105
head 4.11158 -11.7572 27.2234
rclavicle -6.99722e-014 1.15171e-014
rhumerus -42.5603 -24.062 -50.8127
rradius 43.9876
rwrist 23.2636
rhand -18.3336 -9.00643
rfingers 7.12502
rthumb 7.94835 -38.837
lclavicle -6.99722e-014 1.15171e-014
lhumerus -52.6493 -3.09201 74.3014
lradius 41.2848
lwrist 29.9374
lhand -3.03974 -6.44504
lfingers 7.12502
lthumb 22.6758 22.2427
rfemur -18.8852 -7.96611 30.7816
rtibia 66.8875
rfoot 19.0738 15.3132
rtoes -12.5958
lfemur -1.58245 0.734612 0.570495
ltibia 47.3925
lfoot 38.8078 -12.5971
ltoes -11.286
524
root 3.11707 1.23815 17.4764 -103.406 -14.315 8.95321
lowerback 18.2838 0.217122 10.9979
upperback 2.58548 2.52259 0.214683
thorax -6.97174 0.973883 -6.61866
lowerneck 17.8866 -6.97303 -34.2166
upperneck -6.4738 -18.2799 45.9421
head 4.24955 -11.6335 27.1719
rclavicle -8.34896e-015 -1.5791e-014
rhumerus -41.8149 -23.8863 -50.6227
rradius 43.2312
rwrist 23.6994
rhand -18.723 -8.96608
rfingers 7.12502
rthumb 7.57253 -38.8105
lclavicle -8.34896e-015 -1.5791e-014
lhumerus -52.7179 -2.17589 74.3846
lradius 41.3487
lwrist 29.9223
lhand -2.78763 -6.41561
lfingers 7.12502
lthumb 22.9178 22.2424
rfemur -18.2026 -7.89161 30.6259
rtibia 65.7834
rfoot 18.9184 15.3542
rtoes -13.9198
lfemur -1.41622 0.609439 0.339413
ltibia 47.3993
lfoot 38.7294 -12.3614
ltoes -11.258
525
root 3.11326 1.23955 17.4864 -103.491 -14.1377 8.90698
lowerback 18.2928 0.141594 10.5247
upperback 2.65613 2.33359 0.379033
thorax -6.96235 0.897045 -6.1256
lowerneck 17.4272 -7.02508 -34.3882
upperneck -6.55313 -18.1895 45.9148
head 4.30213 -11.5338 27.1433
rclavicle 5.1684e-015 3.77691e-015
rhumerus -41.3667 -23.8356 -50.3863
rradius 42.5223
rwrist 24.1032
rhand -19.1178 -8.91627
rfingers 7.12502
rthumb 7.19145 -38.7741
lclavicle 5.1684e-015 3.77691e-015
lhumerus -52.8186 -1.57441 74.4382
lradius 41.4098
lwrist 29.9923
lhand -2.59547 -6.3644
lfingers 7.12502
lthumb 23.1021 22.2706
rfemur -17.578 -7.84434 30.4941
rtibia 64.7403
rfoot 18.7205 15.3876
rtoes -15.2198
lfemur -1.31867 0.498445 0.13079
ltibia 47.439
lfoot 38.6072 -12.2004
ltoes -11.3138
526
root 3.10953 1.2404 17.4954 -103.545 -13.9719 8.84881
lowerback 18.3165 0.110748 10.2369
upperback 2.65135 2.24038 0.425066
thorax -7.01094 0.855402 -5.89184
lowerneck 17.2369 -7.06227 -34.3793
upperneck -6.70558 -18.1223 45.9467
head 4.27419 -11.4751 27.1459
rclavicle 1.74931e-014 -1.9717e-014
rhumerus -41.3024 -23.964 -50.0815
rradius 41.8831
rwrist 24.4837
rhand -19.5478 -8.86845
rfingers 7.12502
rthumb 6.77638 -38.74
lclavicle 1.74931e-014 -1.9717e-014
lhumerus -52.9426 -1.37386 74.4483
lradius 41.4466
lwrist 30.0086
lhand -2.45102 -6.32719
lfingers 7.12502
lthumb 23.2407 22.2904
rfemur -17.0026 -7.81773 30.3775
rtibia 63.7575
rfoot 18.4336 15.2669
rtoes -15.8851
lfemur -1.27605 0.402874 -0.0630726
ltibia 47.5091
lfoot 38.4565 -12.1012
ltoes -11.453
527
root 3.10612 1.24066 17.5041 -103.581 -13.8158 8.78547
lowerback 18.3477 0.100846 10.036
upperback 2.61822 2.19165 0.418165
thorax -7.08051 0.831012 -5.77631
lowerneck 17.1528 -7.10438 -34.2712
upperneck -6.90296 -18.0694 46.0058
head 4.20959 -11.4343 27.1485
rclavicle -1.90833e-014 3.71727e-014
rhumerus -41.4073 -24.184 -49.7543
rradius 41.2811
rwrist 24.8511
rhand -20.0204 -8.77211
rfingers 7.12502
rthumb 6.32016 -38.6578
lclavicle -1.90833e-014 3.71727e-014
lhumerus -53.0572 -1.35868 74.4376
lradius 41.4413
lwrist 29.8915
lhand -2.35506 -6.33254
lfingers 7.12502
lthumb 23.3328 22.2734
rfemur -16.4615 -7.80927 30.2732
rtibia 62.8416
rfoot 18.0025 14.9582
rtoes -15.672
lfemur -1.2694 0.327392 -0.242337
ltibia 47.602
lfoot 38.2922 -12.0567
ltoes -11.6501
528
root 3.10313 1.24037 17.5128 -103.593 -13.6762 8.72076
lowerback 18.3647 0.0916079 9.87038
upperback 2.58272 2.14877 0.405281
thorax -7.14194 0.809118 -5.68807
lowerneck 17.0422 -7.16462 -34.1481
upperneck -7.08782 -18.039 46.0681
head 4.1649 -11.4033 27.1354
rclavicle -4.41302e-014 2.72087e-014
rhumerus -41.5268 -24.4252 -49.4408
rradius 40.6947
rwrist 25.207
rhand -20.4484 -8.73948
rfingers 7.12502
rthumb 5.90689 -38.6371
lclavicle -4.41302e-014 2.72087e-014
lhumerus -53.149 -1.37184 74.4225
lradius 41.3992
lwrist 29.6863
lhand -2.31806 -6.38394
lfingers 7.12502
lthumb 23.3683 22.2175
rfemur -15.9654 -7.81535 30.1907
rtibia 61.9856
rfoot 17.6949 14.7473
rtoes -15.9601
lfemur -1.30628 0.273482 -0.399275
ltibia 47.7155
lfoot 38.1322 -12.0381
ltoes -11.8566
